<svg width="20" height="20" viewBox="0 0 20 20" fill="none" xmlns="http://www.w3.org/2000/svg">
<path d="M5 5.83333V3.33333C5 3.11232 5.0878 2.90036 5.24408 2.74408C5.40036 2.5878 5.61232 2.5 5.83333 2.5H11.1783L12.845 4.16667H17.5C17.721 4.16667 17.933 4.25446 18.0893 4.41074C18.2455 4.56702 18.3333 4.77899 18.3333 5V13.3333C18.3333 13.5543 18.2455 13.7663 18.0893 13.9226C17.933 14.0789 17.721 14.1667 17.5 14.1667H15V16.6667C15 16.8877 14.9122 17.0996 14.7559 17.2559C14.5996 17.4122 14.3877 17.5 14.1667 17.5H2.5C2.27899 17.5 2.06702 17.4122 1.91074 17.2559C1.75446 17.0996 1.66667 16.8877 1.66667 16.6667V6.66667C1.66667 6.44565 1.75446 6.23369 1.91074 6.07741C2.06702 5.92113 2.27899 5.83333 2.5 5.83333H5ZM5 7.5H3.33333V15.8333H13.3333V14.1667H5V7.5Z" fill="white" fill-opacity="0.88"/>
</svg>
