<svg width="20" height="20" viewBox="0 0 20 20" fill="none" xmlns="http://www.w3.org/2000/svg">
<g clip-path="url(#clip0_336_87)">
<g clip-path="url(#clip1_336_87)">
<path d="M11.8089 15.1418L11.8089 13.4754H13.4753C13.9131 13.4754 14.3465 13.3892 14.751 13.2217C15.1554 13.0542 15.5229 12.8086 15.8324 12.4991C16.142 12.1896 16.3875 11.8221 16.555 11.4176C16.7225 11.0132 16.8088 10.5798 16.8088 10.142C16.8088 9.70425 16.7225 9.27079 16.555 8.86636C16.3875 8.46193 16.142 8.09446 15.8324 7.78492C15.5229 7.47539 15.1554 7.22985 14.751 7.06233C14.3465 6.89481 13.9131 6.80859 13.4753 6.80859L11.8089 6.80859L11.8089 5.14217L13.4753 5.14217C14.7943 5.15291 16.0556 5.68441 16.9845 6.6209C17.9134 7.55738 18.4346 8.82298 18.4346 10.142C18.4346 11.461 17.9134 12.7266 16.9845 13.6631C16.0556 14.5996 14.7943 15.1311 13.4753 15.1418L11.8089 15.1418V15.1418ZM8.47491 15.1418L6.8085 15.1418C6.14848 15.1472 5.49393 15.0219 4.88261 14.773C4.27129 14.5241 3.71528 14.1567 3.24667 13.6919C2.77806 13.2271 2.40611 12.6741 2.15228 12.0648C1.89846 11.4555 1.76778 10.802 1.76778 10.142C1.76778 9.48197 1.89846 8.82847 2.15228 8.21919C2.40611 7.60991 2.77806 7.05692 3.24667 6.5921C3.71528 6.12729 4.27129 5.75986 4.88261 5.51101C5.49393 5.26215 6.14848 5.1368 6.8085 5.14217L8.47491 5.14217L8.47491 6.80859L6.8085 6.80859C6.37074 6.80859 5.93728 6.89481 5.53285 7.06233C5.12842 7.22985 4.76095 7.47539 4.45141 7.78492C4.14188 8.09446 3.89634 8.46193 3.72882 8.86636C3.5613 9.27079 3.47508 9.70425 3.47508 10.142C3.47508 10.5798 3.5613 11.0132 3.72882 11.4176C3.89634 11.8221 4.14188 12.1896 4.45141 12.4991C4.76095 12.8086 5.12842 13.0542 5.53285 13.2217C5.93728 13.3892 6.37074 13.4754 6.8085 13.4754L8.47491 13.4754L8.47491 15.1418ZM14.3085 9.30821V10.9758L5.97588 10.9752L5.97529 9.30821L14.308 9.3088L14.3085 9.30821Z" fill="white"/>
</g>
</g>
<defs>
<clipPath id="clip0_336_87">
<rect width="20" height="20" fill="white"/>
</clipPath>
<clipPath id="clip1_336_87">
<rect width="20" height="20" fill="white" transform="translate(10.1421 -4) rotate(45)"/>
</clipPath>
</defs>
</svg>
