<svg width="20" height="20" viewBox="0 0 20 20" fill="none" xmlns="http://www.w3.org/2000/svg">
<path fill-rule="evenodd" clip-rule="evenodd" d="M17.1094 2H2.88715L1.10938 5.55911V17.1111C1.10938 17.3469 1.20303 17.573 1.36972 17.7397C1.53642 17.9064 1.76252 18 1.99826 18H17.9983C18.234 18 18.4601 17.9064 18.6268 17.7397C18.7935 17.573 18.8872 17.3469 18.8872 17.1111V5.55556L17.1094 2ZM16.0107 3.77778L16.8996 5.55556H3.09782L3.98671 3.77778H16.0107ZM15.3268 14.0473H10.0645V15.7783H15.3268V14.0473ZM4.66016 9.00303L7.14133 11.4507L4.66016 13.8984L5.90118 15.1231L9.62162 11.4507L5.90118 7.77832L4.66016 9.00303Z" fill="white"/>
</svg>
