<svg width="20" height="20" viewBox="0 0 20 20" fill="none" xmlns="http://www.w3.org/2000/svg">
<path d="M3.25024 3.25H16.7502C16.9492 3.25 17.1399 3.32902 17.2806 3.46967C17.4212 3.61032 17.5002 3.80109 17.5002 4V16C17.5002 16.1989 17.4212 16.3897 17.2806 16.5303C17.1399 16.671 16.9492 16.75 16.7502 16.75H3.25024C3.05133 16.75 2.86057 16.671 2.71991 16.5303C2.57926 16.3897 2.50024 16.1989 2.50024 16V4C2.50024 3.80109 2.57926 3.61032 2.71991 3.46967C2.86057 3.32902 3.05133 3.25 3.25024 3.25V3.25ZM4.00024 4.75V15.25H16.0002V4.75H4.00024ZM10.0002 12.25H14.5002V13.75H10.0002V12.25ZM7.50049 10L5.37874 7.879L6.43999 6.81775L9.62149 10L6.43999 13.1823L5.37874 12.121L7.50049 10Z" fill="white"/>
</svg>
